# xmcd CD database file
#
# Track frame offsets:
#	150
#	12862
#	27289
#	40866
#	53946
#	67727
#	80381
#	92751
#	105554
#	116902
#	127547
#	142493
#	154054
#	167772
#	180336
#	191923
#	203090
#	216819
#	230917
#	241520
#
# Disc length: 3395 seconds
#
# Revision: 0
# Processed by: cddbd v1.5.2PL0 Copyright (c) Steve Scherf et al.
# Submitted via: CDex 1.51
#
DISCID=0b0d4114
DTITLE=B.B King - 40 suosikkia CD1
DYEAR=2009
DGENRE=Blues
TTITLE0=Everyday I Have The Blues
TTITLE1=Whole Lotta' Love
TTITLE2=Sweet Little Angel
TTITLE3=Bad Luck
TTITLE4=Three o'clock blues
TTITLE5=Ten long years
TTITLE6=Miss Martha King
TTITLE7=Boogie Woogie Woman
TTITLE8=B.B. Blues
TTITLE9=That Ain't The Way To Do it
TTITLE10=B.B's Boogie
TTITLE11=Shake It Up And Go
TTITLE12=Sneakin' Around
TTITLE13=I Gotta Find My Baby 
TTITLE14=Did You Ever Love A Woman
TTITLE15=Let's Do The Boogie
TTITLE16=You Upset Me Baby
TTITLE17=She Don't Move Me No More
TTITLE18=Fine Looking Woman
TTITLE19=Please Love Me
EXTD=YEAR: 2009
EXTT0=
EXTT1=
EXTT2=
EXTT3=
EXTT4=
EXTT5=
EXTT6=
EXTT7=
EXTT8=
EXTT9=
EXTT10=
EXTT11=
EXTT12=
EXTT13=
EXTT14=
EXTT15=
EXTT16=
EXTT17=
EXTT18=
EXTT19=
PLAYORDER=
